<mxfile host="app.diagrams.net" modified="2022-06-22T07:48:37.669Z" agent="5.0 (Macintosh; Intel Mac OS X 10_15_7) AppleWebKit/605.1.15 (KHTML, like Gecko) Version/15.5 Safari/605.1.15" etag="3vg55lqmzUXSJcQZo8Kc" version="20.0.2" type="github">
  <diagram id="SoKqVlxx9Xa3OZBeONex" name="Page-1">
    <mxGraphModel dx="946" dy="645" grid="1" gridSize="10" guides="1" tooltips="1" connect="1" arrows="1" fold="1" page="1" pageScale="1" pageWidth="827" pageHeight="1169" math="0" shadow="0">
      <root>
        <mxCell id="0" />
        <mxCell id="1" parent="0" />
        <mxCell id="0VXqqMOcEJrX9_ZsCDA_-11" style="edgeStyle=orthogonalEdgeStyle;rounded=0;orthogonalLoop=1;jettySize=auto;html=1;exitX=0.5;exitY=0;exitDx=0;exitDy=0;entryX=0;entryY=0.5;entryDx=0;entryDy=0;fontSize=20;" edge="1" parent="1" source="0VXqqMOcEJrX9_ZsCDA_-1" target="0VXqqMOcEJrX9_ZsCDA_-2">
          <mxGeometry relative="1" as="geometry" />
        </mxCell>
        <mxCell id="0VXqqMOcEJrX9_ZsCDA_-1" value="&lt;font style=&quot;font-size: 20px;&quot;&gt;Browser&lt;/font&gt;" style="rounded=0;whiteSpace=wrap;html=1;fillColor=#dae8fc;strokeColor=#6c8ebf;" vertex="1" parent="1">
          <mxGeometry y="120" width="120" height="80" as="geometry" />
        </mxCell>
        <mxCell id="0VXqqMOcEJrX9_ZsCDA_-14" style="edgeStyle=orthogonalEdgeStyle;rounded=0;orthogonalLoop=1;jettySize=auto;html=1;exitX=0.25;exitY=1;exitDx=0;exitDy=0;entryX=0.25;entryY=0;entryDx=0;entryDy=0;fontSize=20;" edge="1" parent="1" source="0VXqqMOcEJrX9_ZsCDA_-2" target="0VXqqMOcEJrX9_ZsCDA_-3">
          <mxGeometry relative="1" as="geometry" />
        </mxCell>
        <mxCell id="0VXqqMOcEJrX9_ZsCDA_-18" style="edgeStyle=orthogonalEdgeStyle;rounded=0;orthogonalLoop=1;jettySize=auto;html=1;exitX=1;exitY=0.5;exitDx=0;exitDy=0;entryX=0;entryY=0.125;entryDx=0;entryDy=0;entryPerimeter=0;fontSize=20;" edge="1" parent="1" source="0VXqqMOcEJrX9_ZsCDA_-2" target="0VXqqMOcEJrX9_ZsCDA_-4">
          <mxGeometry relative="1" as="geometry" />
        </mxCell>
        <mxCell id="0VXqqMOcEJrX9_ZsCDA_-2" value="Controller" style="rounded=1;whiteSpace=wrap;html=1;fontSize=20;fillColor=#ffe6cc;strokeColor=#d79b00;" vertex="1" parent="1">
          <mxGeometry x="200" width="120" height="80" as="geometry" />
        </mxCell>
        <mxCell id="0VXqqMOcEJrX9_ZsCDA_-12" style="edgeStyle=orthogonalEdgeStyle;rounded=0;orthogonalLoop=1;jettySize=auto;html=1;exitX=0;exitY=0.5;exitDx=0;exitDy=0;entryX=0.5;entryY=1;entryDx=0;entryDy=0;fontSize=20;" edge="1" parent="1" source="0VXqqMOcEJrX9_ZsCDA_-3" target="0VXqqMOcEJrX9_ZsCDA_-1">
          <mxGeometry relative="1" as="geometry" />
        </mxCell>
        <mxCell id="0VXqqMOcEJrX9_ZsCDA_-15" style="edgeStyle=orthogonalEdgeStyle;rounded=0;orthogonalLoop=1;jettySize=auto;html=1;exitX=0.75;exitY=0;exitDx=0;exitDy=0;entryX=0.75;entryY=1;entryDx=0;entryDy=0;fontSize=20;" edge="1" parent="1" source="0VXqqMOcEJrX9_ZsCDA_-3" target="0VXqqMOcEJrX9_ZsCDA_-2">
          <mxGeometry relative="1" as="geometry" />
        </mxCell>
        <mxCell id="0VXqqMOcEJrX9_ZsCDA_-20" style="edgeStyle=orthogonalEdgeStyle;rounded=0;orthogonalLoop=1;jettySize=auto;html=1;exitX=1;exitY=0.75;exitDx=0;exitDy=0;entryX=0;entryY=0.938;entryDx=0;entryDy=0;entryPerimeter=0;fontSize=20;" edge="1" parent="1" source="0VXqqMOcEJrX9_ZsCDA_-3" target="0VXqqMOcEJrX9_ZsCDA_-4">
          <mxGeometry relative="1" as="geometry" />
        </mxCell>
        <mxCell id="0VXqqMOcEJrX9_ZsCDA_-3" value="View" style="rounded=1;whiteSpace=wrap;html=1;fontSize=20;fillColor=#ffe6cc;strokeColor=#d79b00;" vertex="1" parent="1">
          <mxGeometry x="200" y="240" width="120" height="80" as="geometry" />
        </mxCell>
        <mxCell id="0VXqqMOcEJrX9_ZsCDA_-9" value="Database" style="shape=cylinder3;whiteSpace=wrap;html=1;boundedLbl=1;backgroundOutline=1;size=15;fontSize=20;fillColor=#dae8fc;strokeColor=#6c8ebf;" vertex="1" parent="1">
          <mxGeometry x="680" y="40" width="130" height="80" as="geometry" />
        </mxCell>
        <mxCell id="0VXqqMOcEJrX9_ZsCDA_-10" value="" style="group" vertex="1" connectable="0" parent="1">
          <mxGeometry x="440" width="170" height="320" as="geometry" />
        </mxCell>
        <mxCell id="0VXqqMOcEJrX9_ZsCDA_-4" value="Model" style="rounded=1;whiteSpace=wrap;html=1;fontSize=20;fillColor=#ffe6cc;strokeColor=#d79b00;verticalAlign=top;" vertex="1" parent="0VXqqMOcEJrX9_ZsCDA_-10">
          <mxGeometry width="170" height="320" as="geometry" />
        </mxCell>
        <mxCell id="0VXqqMOcEJrX9_ZsCDA_-5" value="Repositories" style="rounded=1;whiteSpace=wrap;html=1;fontSize=20;fillColor=#d5e8d4;strokeColor=#82b366;" vertex="1" parent="0VXqqMOcEJrX9_ZsCDA_-10">
          <mxGeometry x="20" y="53.333333333333336" width="130" height="40" as="geometry" />
        </mxCell>
        <mxCell id="0VXqqMOcEJrX9_ZsCDA_-6" value="Entities" style="rounded=1;whiteSpace=wrap;html=1;fontSize=20;fillColor=#d5e8d4;strokeColor=#82b366;" vertex="1" parent="0VXqqMOcEJrX9_ZsCDA_-10">
          <mxGeometry x="20" y="120" width="130" height="40" as="geometry" />
        </mxCell>
        <mxCell id="0VXqqMOcEJrX9_ZsCDA_-7" value="Services" style="rounded=1;whiteSpace=wrap;html=1;fontSize=20;fillColor=#d5e8d4;strokeColor=#82b366;" vertex="1" parent="0VXqqMOcEJrX9_ZsCDA_-10">
          <mxGeometry x="20" y="186.66666666666666" width="130" height="40" as="geometry" />
        </mxCell>
        <mxCell id="0VXqqMOcEJrX9_ZsCDA_-8" value="Components" style="rounded=1;whiteSpace=wrap;html=1;fontSize=20;fillColor=#d5e8d4;strokeColor=#82b366;" vertex="1" parent="0VXqqMOcEJrX9_ZsCDA_-10">
          <mxGeometry x="20" y="253.33333333333334" width="130" height="40" as="geometry" />
        </mxCell>
        <mxCell id="0VXqqMOcEJrX9_ZsCDA_-19" style="edgeStyle=orthogonalEdgeStyle;rounded=0;orthogonalLoop=1;jettySize=auto;html=1;entryX=1;entryY=0.25;entryDx=0;entryDy=0;fontSize=20;" edge="1" parent="1" target="0VXqqMOcEJrX9_ZsCDA_-3">
          <mxGeometry relative="1" as="geometry">
            <mxPoint x="440" y="260" as="sourcePoint" />
            <Array as="points">
              <mxPoint x="440" y="260" />
            </Array>
          </mxGeometry>
        </mxCell>
        <mxCell id="0VXqqMOcEJrX9_ZsCDA_-21" style="edgeStyle=orthogonalEdgeStyle;rounded=0;orthogonalLoop=1;jettySize=auto;html=1;exitX=0;exitY=0.248;exitDx=0;exitDy=0;exitPerimeter=0;fontSize=20;" edge="1" parent="1" source="0VXqqMOcEJrX9_ZsCDA_-9">
          <mxGeometry relative="1" as="geometry">
            <mxPoint x="590" y="60" as="targetPoint" />
            <Array as="points" />
          </mxGeometry>
        </mxCell>
        <mxCell id="0VXqqMOcEJrX9_ZsCDA_-22" style="edgeStyle=orthogonalEdgeStyle;rounded=0;orthogonalLoop=1;jettySize=auto;html=1;exitX=1;exitY=0.75;exitDx=0;exitDy=0;entryX=-0.003;entryY=0.538;entryDx=0;entryDy=0;entryPerimeter=0;fontSize=20;" edge="1" parent="1" source="0VXqqMOcEJrX9_ZsCDA_-5" target="0VXqqMOcEJrX9_ZsCDA_-9">
          <mxGeometry relative="1" as="geometry" />
        </mxCell>
        <mxCell id="0VXqqMOcEJrX9_ZsCDA_-23" value="&lt;font style=&quot;font-size: 13px;&quot;&gt;Request&lt;/font&gt;" style="text;html=1;strokeColor=none;fillColor=none;align=center;verticalAlign=middle;whiteSpace=wrap;rounded=0;fontSize=20;" vertex="1" parent="1">
          <mxGeometry x="100" y="10" width="60" height="30" as="geometry" />
        </mxCell>
        <mxCell id="0VXqqMOcEJrX9_ZsCDA_-24" value="&lt;font style=&quot;font-size: 13px;&quot;&gt;Renders&lt;/font&gt;" style="text;html=1;strokeColor=none;fillColor=none;align=center;verticalAlign=middle;whiteSpace=wrap;rounded=0;fontSize=20;" vertex="1" parent="1">
          <mxGeometry x="230" y="130" width="60" height="30" as="geometry" />
        </mxCell>
        <mxCell id="0VXqqMOcEJrX9_ZsCDA_-25" value="&lt;font style=&quot;font-size: 13px;&quot;&gt;Manipulates&lt;/font&gt;" style="text;html=1;strokeColor=none;fillColor=none;align=center;verticalAlign=middle;whiteSpace=wrap;rounded=0;fontSize=20;" vertex="1" parent="1">
          <mxGeometry x="350" y="10" width="60" height="30" as="geometry" />
        </mxCell>
        <mxCell id="0VXqqMOcEJrX9_ZsCDA_-26" value="&lt;font style=&quot;font-size: 13px;&quot;&gt;Displays&lt;/font&gt;" style="text;html=1;strokeColor=none;fillColor=none;align=center;verticalAlign=middle;whiteSpace=wrap;rounded=0;fontSize=20;" vertex="1" parent="1">
          <mxGeometry x="354" y="230" width="60" height="30" as="geometry" />
        </mxCell>
      </root>
    </mxGraphModel>
  </diagram>
</mxfile>
